<mxfile host="app.diagrams.net" modified="2023-12-28T11:22:38.463Z" agent="Mozilla/5.0 (Windows NT 10.0; Win64; x64) AppleWebKit/537.36 (KHTML, like Gecko) Chrome/120.0.0.0 Safari/537.36 Edg/120.0.0.0" etag="d661SkEi4ofj5pK7KYv6" version="22.1.15" type="device">
  <diagram name="Page-1" id="7vYszsSPP3vqRqr85Uxn">
    <mxGraphModel dx="2887" dy="1133" grid="1" gridSize="10" guides="1" tooltips="1" connect="1" arrows="1" fold="1" page="1" pageScale="1" pageWidth="850" pageHeight="1100" math="0" shadow="0">
      <root>
        <mxCell id="0" />
        <mxCell id="1" parent="0" />
        <mxCell id="U-4ocNDepw7n5cJbMUAx-19" value="" style="group;aspect=fixed;strokeWidth=3;" vertex="1" connectable="0" parent="1">
          <mxGeometry x="-10" y="27" width="1360" height="1330" as="geometry" />
        </mxCell>
        <mxCell id="U-4ocNDepw7n5cJbMUAx-3" value="" style="endArrow=none;html=1;rounded=0;strokeWidth=5;" edge="1" parent="U-4ocNDepw7n5cJbMUAx-19" target="U-4ocNDepw7n5cJbMUAx-4">
          <mxGeometry width="50" height="50" relative="1" as="geometry">
            <mxPoint x="1220" y="1333" as="sourcePoint" />
            <mxPoint x="1237.2932330827066" y="130" as="targetPoint" />
            <Array as="points">
              <mxPoint x="1220" y="743" />
            </Array>
          </mxGeometry>
        </mxCell>
        <mxCell id="U-4ocNDepw7n5cJbMUAx-4" value="&lt;font style=&quot;font-size: 32px;&quot;&gt;P&lt;/font&gt;" style="text;html=1;align=center;verticalAlign=middle;resizable=0;points=[];autosize=1;strokeColor=none;fillColor=none;fontSize=9;" vertex="1" parent="U-4ocNDepw7n5cJbMUAx-19">
          <mxGeometry x="1201.0030827067667" y="89" width="40" height="50" as="geometry" />
        </mxCell>
        <mxCell id="U-4ocNDepw7n5cJbMUAx-5" value="" style="ellipse;whiteSpace=wrap;html=1;aspect=fixed;strokeWidth=2;" vertex="1" parent="U-4ocNDepw7n5cJbMUAx-19">
          <mxGeometry x="316.99248120300746" y="330" width="900" height="900" as="geometry" />
        </mxCell>
        <mxCell id="U-4ocNDepw7n5cJbMUAx-7" value="" style="triangle;whiteSpace=wrap;html=1;direction=north;rotation=-30;strokeWidth=2;" vertex="1" parent="U-4ocNDepw7n5cJbMUAx-19">
          <mxGeometry x="316.99248120300746" y="930" width="102.25563909774434" height="100" as="geometry" />
        </mxCell>
        <mxCell id="U-4ocNDepw7n5cJbMUAx-8" value="&lt;font style=&quot;font-size: 32px;&quot;&gt;A&lt;/font&gt;" style="text;html=1;strokeColor=none;fillColor=none;align=center;verticalAlign=middle;whiteSpace=wrap;rounded=0;fontSize=9;" vertex="1" parent="U-4ocNDepw7n5cJbMUAx-19">
          <mxGeometry x="269" y="892" width="115" height="300" as="geometry" />
        </mxCell>
        <mxCell id="U-4ocNDepw7n5cJbMUAx-12" value="" style="endArrow=none;html=1;rounded=0;entryX=1;entryY=0.5;entryDx=0;entryDy=0;strokeWidth=2;" edge="1" parent="U-4ocNDepw7n5cJbMUAx-19" target="U-4ocNDepw7n5cJbMUAx-5">
          <mxGeometry width="50" height="50" relative="1" as="geometry">
            <mxPoint x="777.1428571428571" y="780" as="sourcePoint" />
            <mxPoint x="1135.0375939849623" y="530" as="targetPoint" />
          </mxGeometry>
        </mxCell>
        <mxCell id="U-4ocNDepw7n5cJbMUAx-13" value="" style="endArrow=none;dashed=1;html=1;strokeWidth=1;rounded=0;fontSize=8;dashPattern=1 1;" edge="1" parent="U-4ocNDepw7n5cJbMUAx-19">
          <mxGeometry width="50" height="50" relative="1" as="geometry">
            <mxPoint x="378.34586466165405" y="990" as="sourcePoint" />
            <mxPoint x="777.1428571428571" y="780" as="targetPoint" />
          </mxGeometry>
        </mxCell>
        <mxCell id="U-4ocNDepw7n5cJbMUAx-15" value="" style="endArrow=block;html=1;rounded=0;strokeWidth=3;endFill=1;" edge="1" parent="U-4ocNDepw7n5cJbMUAx-19">
          <mxGeometry width="50" height="50" relative="1" as="geometry">
            <mxPoint x="378.34586466165405" y="990" as="sourcePoint" />
            <mxPoint x="555" y="898" as="targetPoint" />
          </mxGeometry>
        </mxCell>
        <mxCell id="U-4ocNDepw7n5cJbMUAx-16" value="&lt;font style=&quot;font-size: 32px;&quot;&gt;d&lt;/font&gt;" style="text;html=1;strokeColor=none;fillColor=none;align=center;verticalAlign=middle;whiteSpace=wrap;rounded=0;" vertex="1" parent="U-4ocNDepw7n5cJbMUAx-19">
          <mxGeometry x="343.9980451127818" y="878" width="204.51127819548867" height="100" as="geometry" />
        </mxCell>
        <mxCell id="U-4ocNDepw7n5cJbMUAx-17" value="&lt;font style=&quot;font-size: 32px;&quot;&gt;^&lt;/font&gt;" style="text;html=1;strokeColor=none;fillColor=none;align=center;verticalAlign=middle;whiteSpace=wrap;rounded=0;fontSize=7;" vertex="1" parent="U-4ocNDepw7n5cJbMUAx-19">
          <mxGeometry x="344" y="897" width="204.51" height="30" as="geometry" />
        </mxCell>
        <mxCell id="U-4ocNDepw7n5cJbMUAx-18" value="&lt;font style=&quot;font-size: 32px;&quot;&gt;C&lt;/font&gt;" style="text;html=1;strokeColor=none;fillColor=none;align=center;verticalAlign=middle;whiteSpace=wrap;rounded=0;" vertex="1" parent="U-4ocNDepw7n5cJbMUAx-19">
          <mxGeometry x="464.0003759398495" y="609" width="613.533834586466" height="300" as="geometry" />
        </mxCell>
      </root>
    </mxGraphModel>
  </diagram>
</mxfile>
